# xmcd CD database file
#
# Track frame offsets:
#	182
#	10820
#	22885
#	37212
#	51290
#	62610
#	71627
#	86392
#	101882
#	120857
#	132137
#
# Disc length: 1937 seconds
#
# Revision: 0
# Processed by: cddbd v1.5.2PL0 Copyright (c) Steve Scherf et al.
# Submitted via: CDex 1.79
#
DISCID=8a078f0b
DTITLE=Wayne Horsburgh - Yodel-Antics
DYEAR=1900
DGENRE=Country
TTITLE0=Arizona Yodeller
TTITLE1=There`s A Rainbow In Every Teardrop
TTITLE2=Oh Leo Lady
TTITLE3=The Song Of The Old Waterwheel
TTITLE4=Sing A Sad Song
TTITLE5=Chimebells
TTITLE6=Starting Tonight
TTITLE7=Rockonover River
TTITLE8=High Mountain Yodel
TTITLE9=North Wind
TTITLE10=Swiss Lullaby
EXTD=
EXTT0=
EXTT1=
EXTT2=
EXTT3=
EXTT4=
EXTT5=
EXTT6=
EXTT7=
EXTT8=
EXTT9=
EXTT10=
PLAYORDER=
